<svg id="a" version="1.1" viewBox="0 0 315.58 60.389" xmlns="http://www.w3.org/2000/svg">
 <defs>
  <style>.cls-1{fill:#616365;}.cls-2{fill:#c11f3e;}</style>
 </defs>
 <path class="cls-1" d="m169.77 9.6686a9.23 9.23 0 0 1-0.91 4.26 8.52 8.52 0 0 1-2.37 2.94 9.88 9.88 0 0 1-3.38 1.7 13.73 13.73 0 0 1-3.82 0.55h-7v-18.78h6.79a16.76 16.76 0 0 1 3.93 0.46 9.83 9.83 0 0 1 3.45 1.54 8 8 0 0 1 2.44 2.88 9.77 9.77 0 0 1 0.92 4.45m-4.72 0a6 6 0 0 0-0.51-2.64 4.64 4.64 0 0 0-1.38-1.67 5.51 5.51 0 0 0-2-0.88 9.45 9.45 0 0 0-2.26-0.27h-2.26v11h2.15a9.63 9.63 0 0 0 2.35-0.28 5.58 5.58 0 0 0 2-0.91 4.66 4.66 0 0 0 1.38-1.7 6 6 0 0 0 0.51-2.63"/>
 <path class="cls-1" d="m172.35 7.7086a7.57 7.57 0 0 1 2.71-1.67 9.37 9.37 0 0 1 3.17-0.56 8.59 8.59 0 0 1 2.83 0.41 4.24 4.24 0 0 1 1.87 1.28 5.64 5.64 0 0 1 1.05 2.17 13 13 0 0 1 0.33 3.12v6.66h-4v-1.41h-0.08a3.24 3.24 0 0 1-1.53 1.27 5.39 5.39 0 0 1-2.21 0.45 6.77 6.77 0 0 1-1.64-0.21 4.77 4.77 0 0 1-1.56-0.69 3.71 3.71 0 0 1-1.15-1.27 4 4 0 0 1-0.45-2 3.33 3.33 0 0 1 0.78-2.31 5.13 5.13 0 0 1 2.02-1.34 10.69 10.69 0 0 1 2.74-0.64 27.17 27.17 0 0 1 3-0.16v-0.2a1.62 1.62 0 0 0-0.69-1.45 3 3 0 0 0-1.7-0.46 4.14 4.14 0 0 0-1.79 0.4 5.4 5.4 0 0 0-1.47 0.95zm8 5.65h-0.56a13.88 13.88 0 0 0-1.44 0.07 5.88 5.88 0 0 0-1.3 0.25 2.28 2.28 0 0 0-0.94 0.54 1.26 1.26 0 0 0-0.38 0.94 1.12 1.12 0 0 0 0.18 0.64 1.36 1.36 0 0 0 0.43 0.43 1.92 1.92 0 0 0 0.61 0.22 3.11 3.11 0 0 0 0.67 0.07 2.68 2.68 0 0 0 2-0.73 2.74 2.74 0 0 0 0.71-2z"/>
 <path class="cls-1" d="m192 9.1386v5.06a2.27 2.27 0 0 0 0.36 1.4 1.51 1.51 0 0 0 1.28 0.47 4.18 4.18 0 0 0 0.68-0.06 2.17 2.17 0 0 0 0.6-0.16v3.19a9.51 9.51 0 0 1-1.14 0.28 9.17 9.17 0 0 1-1.38 0.11 6.52 6.52 0 0 1-2.23-0.33 3.38 3.38 0 0 1-1.44-1 3.65 3.65 0 0 1-0.79-1.48 7.23 7.23 0 0 1-0.24-1.93v-5.55h-2.12v-3.23h2.1v-3.48h4.27v3.48h3.1v3.23z"/>
 <path class="cls-1" d="m196.96 7.7086a7.52 7.52 0 0 1 2.72-1.67 9.32 9.32 0 0 1 3.16-0.56 8.59 8.59 0 0 1 2.83 0.41 4.24 4.24 0 0 1 1.87 1.28 5.37 5.37 0 0 1 1 2.17 13 13 0 0 1 0.33 3.12v6.66h-4v-1.41h-0.08a3.24 3.24 0 0 1-1.53 1.27 5.39 5.39 0 0 1-2.21 0.45 6.77 6.77 0 0 1-1.64-0.21 4.63 4.63 0 0 1-1.55-0.69 3.74 3.74 0 0 1-1.16-1.27 4 4 0 0 1-0.45-2 3.33 3.33 0 0 1 0.78-2.31 5.21 5.21 0 0 1 2-1.35 10.79 10.79 0 0 1 2.74-0.64 27.17 27.17 0 0 1 2.95-0.16v-0.19a1.62 1.62 0 0 0-0.69-1.45 3 3 0 0 0-1.7-0.46 4.14 4.14 0 0 0-1.79 0.4 5.73 5.73 0 0 0-1.47 0.95zm8 5.65h-0.56a14 14 0 0 0-1.44 0.07 5.88 5.88 0 0 0-1.3 0.25 2.28 2.28 0 0 0-0.94 0.54 1.26 1.26 0 0 0-0.38 0.94 1.12 1.12 0 0 0 0.18 0.64 1.29 1.29 0 0 0 0.44 0.43 1.76 1.76 0 0 0 0.61 0.22 3 3 0 0 0 0.66 0.07 2.48 2.48 0 0 0 2.73-2.71z"/>
 <path class="cls-1" d="m113.6 0.33856h6.47a9.57 9.57 0 0 1 2.12 0.24 5.66 5.66 0 0 1 1.9 0.79 4.41 4.41 0 0 1 1.4 1.46 4.52 4.52 0 0 1 0.52 2.26 3.9 3.9 0 0 1-0.9 2.62 4.6 4.6 0 0 1-2.39 1.46v0.05a5.37 5.37 0 0 1 1.67 0.47 4.51 4.51 0 0 1 1.33 0.94 4.24 4.24 0 0 1 0.77 1.38 5 5 0 0 1 0.3 1.78 4.58 4.58 0 0 1-2.07 4 6.83 6.83 0 0 1-2.24 1 10.55 10.55 0 0 1-2.74 0.34h-6.18zm2.62 7.93h3.42a5.94 5.94 0 0 0 1.42-0.17 3.54 3.54 0 0 0 1.18-0.53 2.6 2.6 0 0 0 0.8-0.91 2.79 2.79 0 0 0 0.29-1.31 2.3 2.3 0 0 0-1.11-2.16 6 6 0 0 0-3-0.65h-3zm0 8.62h3.27a9.4 9.4 0 0 0 1.66-0.15 4.58 4.58 0 0 0 1.51-0.52 3 3 0 0 0 1.09-1 2.83 2.83 0 0 0 0.41-1.58 2.66 2.66 0 0 0-1.14-2.41 6 6 0 0 0-3.29-0.74h-3.53z"/>
 <path class="cls-1" d="m133.41 2.0086a1.47 1.47 0 0 1-0.49 1.14 1.65 1.65 0 0 1-1.17 0.45 1.61 1.61 0 0 1-1.16-0.46 1.62 1.62 0 0 1 0-2.28 1.68 1.68 0 0 1 2.33 0 1.51 1.51 0 0 1 0.49 1.15m-0.4 17.11h-2.52v-12.58h2.49z"/>
 <path class="cls-1" d="m150.09 12.799a6.67 6.67 0 0 1-0.52 2.68 6.21 6.21 0 0 1-1.43 2.13 6.55 6.55 0 0 1-2.16 1.38 7.57 7.57 0 0 1-5.36 0 6.36 6.36 0 0 1-2.13-1.38 6.18 6.18 0 0 1-1.42-2.11 6.67 6.67 0 0 1-0.52-2.68 6.58 6.58 0 0 1 0.52-2.66 6.06 6.06 0 0 1 1.42-2.1 6.34 6.34 0 0 1 2.14-1.37 7.57 7.57 0 0 1 5.36 0 6.53 6.53 0 0 1 2.16 1.37 6.09 6.09 0 0 1 1.43 2.08 6.58 6.58 0 0 1 0.52 2.66m-2.6 0a5.21 5.21 0 0 0-0.28-1.72 4.08 4.08 0 0 0-0.81-1.44 3.65 3.65 0 0 0-1.32-1 4.09 4.09 0 0 0-1.79-0.37 4.14 4.14 0 0 0-1.8 0.37 3.7 3.7 0 0 0-1.31 1 4.26 4.26 0 0 0-0.82 1.44 5.61 5.61 0 0 0 0 3.44 4.51 4.51 0 0 0 0.82 1.45 3.87 3.87 0 0 0 1.31 1 4.29 4.29 0 0 0 1.8 0.37 4.24 4.24 0 0 0 1.79-0.37 3.81 3.81 0 0 0 1.32-1 4.3 4.3 0 0 0 0.81-1.45 5.21 5.21 0 0 0 0.28-1.72"/>
 <g id="b" transform="translate(-21.51 -17.391)">
  <path class="cls-1" d="m333.52 77.43h-0.6a3.59 3.59 0 0 1-0.86-0.2 3.76 3.76 0 0 1-2.45-3.26 3.67 3.67 0 0 1 0.09-1.14 3.76 3.76 0 0 1 3.45-2.87 3.6 3.6 0 0 1 1.18 0.13 3.68 3.68 0 0 1 2.25 1.72 3.59 3.59 0 0 1 0.51 1.59v0.14 0.34a2.11 2.11 0 0 1 0 0.25 3.5 3.5 0 0 1-0.23 0.9 3.68 3.68 0 0 1-1.86 1.97 3.76 3.76 0 0 1-1.38 0.39zm-3.16-3.75a3 3 0 1 0 3-3 3 3 0 0 0-3 3z"/>
  <path class="cls-1" d="m334 73.72a0.8 0.8 0 0 1 0.4 0.25 1.51 1.51 0 0 1 0.18 0.26l0.32 0.61 0.33 0.68h-1c-0.17-0.33-0.33-0.66-0.49-1a1.14 1.14 0 0 0-0.23-0.31 0.49 0.49 0 0 0-0.32-0.14h-0.4v1.47h-1v-3.91h1.62a2.27 2.27 0 0 1 0.78 0.12 1 1 0 0 1 0.46 0.32 0.86 0.86 0 0 1 0.16 0.41 1.36 1.36 0 0 1 0 0.6 0.88 0.88 0 0 1-0.53 0.57zm-1.28-0.35h0.67a0.39 0.39 0 0 0 0.32-0.28 0.72 0.72 0 0 0 0-0.41 0.31 0.31 0 0 0-0.23-0.24 0.8 0.8 0 0 0-0.21 0h-0.55z"/>
 </g>
 <polygon class="cls-2" transform="translate(-21.51 -17.391)" points="180.37 55 178.26 61.66 182.48 61.66"/>
 <path class="cls-2" d="m113.6 23.299v36.74h186.26l15-18.37-15-18.37zm23.64 30.12c-5.81 0-10.32-4.45-10.32-11.52v-0.39c0-7 4.58-11.59 10.55-11.59a9.7 9.7 0 0 1 7.85 3.57l-3.76 4a5.11 5.11 0 0 0-4-2.14c-2.67 0-4.65 2.37-4.65 6.23v0.13c0 4.06 2 6.3 4.65 6.3a5.27 5.27 0 0 0 4.15-2.24l3.7 3.76a10 10 0 0 1-8.18 3.9m26.52-0.39-1.33-4.09h-7.13l-1.3 4.09h-6l8-22.85h5.91l8 22.85zm23.64-17.43h-5.62v17.42h-5.84v-17.42h-5.62v-5.3h17.08zm16.22 17.46-1.33-4.09h-7.14l-1.3 4.09h-6l8-22.85h5.91l8 22.85zm24.77 0h-14.77v-22.76h5.88v17.46h8.93zm12.23-8.57v8.57h-5.84v-8.5l-7.28-14.26h6.46l3.79 8.21 3.83-8.21h6.36zm25.93 1.75c0 4.42-3.4 7.14-8.27 7.14a13.79 13.79 0 0 1-9.25-3.34l3.11-4.25a9.93 9.93 0 0 0 6.17 2.56c1.56 0 2.37-0.68 2.37-1.65 0-0.91-0.68-1.46-3.34-2.41-4.29-1.46-7.31-3-7.31-7.14v-0.09c0-4.13 3.15-7 8.12-7a12.44 12.44 0 0 1 8.11 2.75l-2.95 4.35a9 9 0 0 0-5.29-2.07c-1.33 0-2.08 0.64-2.08 1.49 0 1 0.71 1.53 3.6 2.6 4.32 1.39 7 3.15 7 7zm20-10.64h-5.62v17.42h-5.84v-17.42h-5.59v-5.3h17.08z"/>
 <polygon class="cls-2" transform="translate(-21.51 -17.391)" points="220.22 55 218.11 61.66 222.33 61.66"/>
 <path class="cls-2" d="m113.6 23.299v36.74h186.26l15-18.37-15-18.37zm23.64 30.12c-5.81 0-10.32-4.45-10.32-11.52v-0.39c0-7 4.58-11.59 10.55-11.59a9.7 9.7 0 0 1 7.85 3.57l-3.76 4a5.11 5.11 0 0 0-4-2.14c-2.67 0-4.65 2.37-4.65 6.23v0.13c0 4.06 2 6.3 4.65 6.3a5.27 5.27 0 0 0 4.15-2.24l3.7 3.76a10 10 0 0 1-8.18 3.9m26.52-0.39-1.33-4.09h-7.13l-1.3 4.09h-6l8-22.85h5.91l8 22.85zm23.64-17.43h-5.62v17.42h-5.84v-17.42h-5.62v-5.3h17.08zm16.22 17.46-1.33-4.09h-7.14l-1.3 4.09h-6l8-22.85h5.91l8 22.85zm24.77 0h-14.77v-22.76h5.88v17.46h8.93zm12.23-8.57v8.57h-5.84v-8.5l-7.28-14.26h6.46l3.79 8.21 3.83-8.21h6.36zm25.93 1.75c0 4.42-3.4 7.14-8.27 7.14a13.79 13.79 0 0 1-9.25-3.34l3.11-4.25a9.93 9.93 0 0 0 6.17 2.56c1.56 0 2.37-0.68 2.37-1.65 0-0.91-0.68-1.46-3.34-2.41-4.29-1.46-7.31-3-7.31-7.14v-0.09c0-4.13 3.15-7 8.12-7a12.44 12.44 0 0 1 8.11 2.75l-2.95 4.35a9 9 0 0 0-5.29-2.07c-1.33 0-2.08 0.64-2.08 1.49 0 1 0.71 1.53 3.6 2.6 4.32 1.39 7 3.15 7 7zm20-10.64h-5.62v17.42h-5.84v-17.42h-5.59v-5.3h17.08z"/>
 <path class="cls-1" d="m72.12 57.609a1.14 1.14 0 1 1 2.27 0zm3.25 0.63a2.14 2.14 0 1 0-4.22-0.24 2.1 2.1 0 0 0 2.16 2.32 2 2 0 0 0 2-1.5h-0.93a1 1 0 0 1-1.07 0.73 1.18 1.18 0 0 1-1.19-1.31zm-7.13-1.73h0.73v2.61c0 0.73 0.2 1.12 1.22 1.12h0.63v-0.75a1.89 1.89 0 0 1-0.41 0c-0.43 0-0.47-0.2-0.47-0.6v-2.38h0.88v-0.72h-0.88v-1.32h-1v1.32h-0.73zm-0.43-0.72h-1v2.56c0 0.68-0.28 1.2-1.09 1.2-0.53 0-0.84-0.28-0.84-1.06v-2.7h-1v2.82c0 1.15 0.49 1.73 1.64 1.73a1.48 1.48 0 0 0 1.32-0.73v0.62h1zm-7 0.72h0.73v2.61c0 0.73 0.21 1.12 1.22 1.12h0.63v-0.75a1.89 1.89 0 0 1-0.41 0c-0.43 0-0.47-0.2-0.47-0.6v-2.38h0.88v-0.72h-0.9v-1.32h-1v1.32h-0.73zm-1.43-1.48h1v-0.92h-1zm0 5.17h1v-4.41h-1zm-3.16-3.69h0.73v2.61c0 0.73 0.21 1.12 1.22 1.12h0.63v-0.75a1.89 1.89 0 0 1-0.41 0c-0.43 0-0.47-0.2-0.47-0.6v-2.38h0.88v-0.72h-0.88v-1.32h-1v1.32h-0.73zm-4.07 2.27c0 1 0.84 1.54 2 1.54 0.91 0 2-0.39 2-1.43 0-0.87-0.71-1.13-1.42-1.29s-1.43-0.23-1.43-0.71 0.52-0.45 0.8-0.45 0.81 0.12 0.89 0.59h1c-0.12-1-0.94-1.36-1.85-1.36s-1.84 0.3-1.84 1.26 0.7 1.15 1.42 1.31 1.41 0.22 1.44 0.73-0.61 0.58-1 0.58-0.95-0.2-1-0.77zm-4.5 1.42h1v-2.59a1.07 1.07 0 0 1 1.06-1.16c0.57 0 0.85 0.29 0.87 1v2.77h1v-3a1.4 1.4 0 0 0-1.56-1.5 1.6 1.6 0 0 0-1.38 0.78v-0.65h-0.92zm-2.08 0h1.06v-6.09h-1.06zm-3.27-6.09h-1v2.25a1.7 1.7 0 0 0-1.47-0.69c-1 0-1.91 0.7-1.91 2.29 0 1.33 0.67 2.36 2.06 2.36a1.48 1.48 0 0 0 1.39-0.71v0.6h0.91zm-3.39 3.93c0-0.79 0.32-1.6 1.24-1.6 0.75 0 1.22 0.58 1.22 1.55 0 0.77-0.37 1.56-1.24 1.56s-1.22-0.75-1.22-1.51m-3.64 2.28a2.33 2.33 0 1 0-2.23-2.33 2.14 2.14 0 0 0 2.23 2.33m0-0.77c-0.87 0-1.26-0.79-1.26-1.56s0.39-1.55 1.26-1.55 1.22 0.79 1.22 1.55-0.38 1.56-1.25 1.56m-4.91 0.77a2.33 2.33 0 1 0-2.22-2.33 2.13 2.13 0 0 0 2.22 2.33m0-0.77c-0.87 0-1.25-0.79-1.25-1.56s0.38-1.55 1.25-1.55 1.26 0.79 1.26 1.55-0.38 1.56-1.26 1.56m-3.84 0.65h1v-6.09h-1zm-4.7-5.22h1.7c0.58 0 0.9 0.22 0.9 0.83a0.82 0.82 0 0 1-0.9 0.85h-1.7zm-1.06 5.22h2.76c1.58 0 2.24-0.74 2.24-1.7a1.45 1.45 0 0 0-1.14-1.57 1.34 1.34 0 0 0 0.9-1.32c0-1-0.71-1.51-1.8-1.51h-3zm1.06-2.77h1.89a0.89 0.89 0 0 1 1 0.93 0.91 0.91 0 0 1-1 1h-1.89zm-4.3-3.32h-1v2.25a1.7 1.7 0 0 0-1.47-0.69c-1 0-1.91 0.7-1.91 2.29 0 1.33 0.67 2.36 2.06 2.36a1.48 1.48 0 0 0 1.32-0.71v0.6h1zm-3.4 3.93c0-0.79 0.33-1.6 1.24-1.6 0.75 0 1.22 0.58 1.22 1.55 0 0.77-0.37 1.56-1.24 1.56s-1.22-0.75-1.22-1.51m-5.5 2.16h1v-2.59a1.08 1.08 0 0 1 1.07-1.16c0.57 0 0.84 0.29 0.86 1v2.77h1v-3a1.39 1.39 0 0 0-1.56-1.5 1.58 1.58 0 0 0-1.37 0.78v-0.65h-0.92zm-0.9-3.25c0-0.93-0.9-1.28-1.76-1.28s-1.94 0.33-2 1.46h1c0-0.47 0.42-0.69 1-0.69 0.39 0 0.91 0.09 0.91 0.59s-0.62 0.5-1.32 0.63-1.7 0.27-1.7 1.37a1.35 1.35 0 0 0 1.51 1.29 2.29 2.29 0 0 0 1.53-0.54 0.66 0.66 0 0 0 0.75 0.54 2.6 2.6 0 0 0 0.62-0.11v-0.68a1.24 1.24 0 0 1-0.25 0c-0.17 0-0.23-0.09-0.23-0.33zm-1 1.76c0 0.62-0.66 0.84-1.09 0.84s-0.89-0.13-0.89-0.56 0.37-0.67 0.79-0.74a3.21 3.21 0 0 0 1.19-0.26z"/>
 <path class="cls-1" d="m77.88 51.119h0.61a0.79 0.79 0 0 1-0.55 0.83v0.52a1.37 1.37 0 0 0 1.15-1.35v-1.15h-1.21zm-0.91-4.41h-1v0.61a1.37 1.37 0 0 0-1.3-0.73 2 2 0 0 0-2 2.21c0 1.26 0.58 2.32 2 2.32a1.51 1.51 0 0 0 1.32-0.77v0.67a1 1 0 0 1-1.14 1.13c-0.49 0-0.93-0.1-1.05-0.65h-1c0.09 1 1.09 1.37 2 1.37 1.38 0 2.16-0.66 2.16-2zm-2.16 3.64c-0.81 0-1.16-0.73-1.16-1.45s0.3-1.54 1.16-1.54 1.19 0.7 1.19 1.46-0.33 1.53-1.19 1.53m-6.66 0.77h1v-2.6a1.08 1.08 0 0 1 1.07-1.16c0.57 0 0.84 0.3 0.86 1v2.77h1v-3a1.39 1.39 0 0 0-1.59-1.52 1.57 1.57 0 0 0-1.37 0.79v-0.69h-0.92zm-0.87-4.41h-1v2.56c0 0.68-0.27 1.2-1.08 1.2-0.53 0-0.85-0.28-0.85-1v-2.76h-1v2.8c0 1.15 0.49 1.73 1.65 1.73a1.49 1.49 0 0 0 1.25-0.73v0.61h1zm-8.48 4.41h4.16v-0.92h-3.09v-5.17h-1.07zm-4.49 0h0.59a0.79 0.79 0 0 1-0.56 0.83v0.52a1.36 1.36 0 0 0 1.15-1.35v-1.15h-1.18zm-3.21-3.68h0.74v2.6c0 0.73 0.2 1.12 1.21 1.12h0.63v-0.75a1.36 1.36 0 0 1-0.4 0c-0.44 0-0.47-0.21-0.47-0.61v-2.36h0.87v-0.73h-0.87v-1.32h-1v1.32h-0.74zm-2.4 3.68h1v-2.1c0-1 0.53-1.51 1.19-1.51a2.84 2.84 0 0 1 0.42 0v-0.9a2 2 0 0 0-0.37 0 1.43 1.43 0 0 0-1.28 1v-0.9h-0.91zm-0.9-3.25c0-0.93-0.9-1.28-1.76-1.28s-1.94 0.34-2 1.47h1c0-0.48 0.43-0.7 1-0.7s0.92 0.09 0.92 0.6-0.63 0.49-1.32 0.62-1.7 0.27-1.7 1.37a1.34 1.34 0 0 0 1.51 1.29 2.22 2.22 0 0 0 1.52-0.54c0.08 0.4 0.36 0.54 0.76 0.54a2.52 2.52 0 0 0 0.61-0.11v-0.67h-0.24c-0.18 0-0.23-0.09-0.23-0.33zm-1 1.77c0 0.61-0.67 0.83-1.09 0.83s-0.9-0.12-0.9-0.56 0.37-0.67 0.79-0.73a3.48 3.48 0 0 0 1.2-0.27zm-6.55-1.11a1.14 1.14 0 0 1 1.24-1.17 1.16 1.16 0 0 1 1.11 1.17zm3.24 0.64a2.13 2.13 0 1 0-4.21-0.25 2.08 2.08 0 0 0 2.21 2.32 1.93 1.93 0 0 0 2-1.5h-0.92a1 1 0 0 1-1.08 0.73 1.17 1.17 0 0 1-1.18-1.3zm-9.89 2h1.09v-2.79h2.8v2.74h1v-6.09h-1v2.42h-2.8v-2.42h-1.06zm-4.21 0h1v-6.14h-1zm-0.9-3.3c0-0.93-0.91-1.28-1.77-1.28s-1.93 0.34-2 1.47h1c0-0.48 0.43-0.7 1-0.7s0.92 0.09 0.92 0.6-0.63 0.49-1.33 0.62-1.69 0.27-1.69 1.37a1.34 1.34 0 0 0 1.51 1.29 2.22 2.22 0 0 0 1.52-0.54 0.66 0.66 0 0 0 0.75 0.54 2.6 2.6 0 0 0 0.62-0.11v-0.67h-0.24c-0.18 0-0.23-0.09-0.23-0.33zm-1 1.74c0 0.61-0.67 0.83-1.1 0.83s-0.89-0.12-0.89-0.56 0.37-0.67 0.79-0.73a3.48 3.48 0 0 0 1.2-0.24zm-7.47 1.48h1v-2.6a1.08 1.08 0 0 1 1.07-1.16c0.57 0 0.85 0.3 0.86 1v2.77h1v-3a1.39 1.39 0 0 0-1.58-1.49 1.57 1.57 0 0 0-1.37 0.79v-0.69h-0.92zm-2.88 0.12a2.33 2.33 0 1 0-2.23-2.33 2.12 2.12 0 0 0 2.23 2.33m0-0.77c-0.87 0-1.26-0.79-1.26-1.56s0.39-1.55 1.26-1.55 1.25 0.79 1.25 1.55-0.38 1.56-1.25 1.56m-3.9-4.52h1v-0.92h-1zm0 5.17h1v-4.38h-1zm-3.16-3.68h0.74v2.6c0 0.73 0.2 1.12 1.22 1.12h0.63v-0.75a1.43 1.43 0 0 1-0.41 0c-0.44 0-0.47-0.21-0.47-0.61v-2.33h0.88v-0.73h-0.88v-1.32h-1v1.32h-0.74zm-0.45 0.43c0-0.93-0.9-1.28-1.76-1.28s-1.94 0.34-2 1.47h1c0.05-0.48 0.43-0.7 1-0.7 0.39 0 0.91 0.09 0.91 0.6s-0.62 0.49-1.32 0.62-1.7 0.27-1.7 1.37a1.35 1.35 0 0 0 1.51 1.29 2.26 2.26 0 0 0 1.53-0.54c0.07 0.4 0.36 0.54 0.75 0.54a2.44 2.44 0 0 0 0.61-0.11v-0.67h-0.24c-0.18 0-0.23-0.09-0.23-0.33zm-1 1.77c0 0.61-0.66 0.83-1.09 0.83s-0.9-0.12-0.9-0.56 0.38-0.67 0.8-0.73a3.47 3.47 0 0 0 1.19-0.27zm-8.63 1.48h1v-4.48l2.77 4.48h1.13v-6.06h-1v4.49l-2.71-4.49h-1.12z"/>
 <path class="cls-1" d="m54.13 0.97856h-38.64a3.5 3.5 0 0 0-3.49 3.5v31a3.49 3.49 0 0 0 3.49 3.47h38.6l10.53-19zm-22.51 27.52h-3.13l-7.74-12.48h-0.07v12.48h-2.83v-17h3.14l7.75 12.51v-12.49h2.83zm5.89 0h-3v-17h3zm13.67 0v-7.66h-7.69v7.66h-3v-17h3v6.75h7.72v-6.73h3v17z"/>
 <path class="cls-2" d="m56.73 38.949 10.52-19-10.49-19h2.63a4.89 4.89 0 0 1 3.87 2.29l9.23 16.71-9.26 16.71a4.89 4.89 0 0 1-3.88 2.29z"/>
 <path class="cls-2" d="m96.49 60.389a0.38 0.38 0 0 1-0.37-0.37v-59.7a0.38 0.38 0 0 1 0.75 0v59.7a0.38 0.38 0 0 1-0.38 0.37z"/>
</svg>
